<?xml version="1.0" standalone="no"?>
<!DOCTYPE svg PUBLIC "-//W3C//DTD SVG 20010904//EN"
 "http://www.w3.org/TR/2001/REC-SVG-20010904/DTD/svg10.dtd">
<svg version="1.0" xmlns="http://www.w3.org/2000/svg"
 width="994.000000pt" height="594.000000pt" viewBox="0 0 994.000000 594.000000"
 preserveAspectRatio="xMidYMid meet">

<g transform="translate(0.000000,594.000000) scale(0.100000,-0.100000)"
fill="#000000" stroke="none">
<path d="M0 2970 l0 -2970 4965 0 4965 0 0 2970 0 2970 -4965 0 -4965 0 0
-2970z m4971 1873 c13 -16 35 -45 47 -65 41 -66 128 -75 177 -16 14 16 25 33
25 38 0 17 52 70 69 70 40 0 55 -25 62 -106 5 -71 9 -80 38 -106 40 -36 73
-36 152 2 55 26 66 28 84 16 30 -20 30 -53 1 -106 -36 -67 -34 -111 7 -156 29
-32 38 -35 105 -41 62 -5 76 -10 89 -29 22 -34 8 -59 -52 -93 -61 -35 -85 -64
-85 -104 0 -47 27 -85 84 -117 66 -37 77 -65 40 -97 -19 -18 -37 -23 -80 -23
-60 0 -107 -19 -119 -47 -25 -61 -24 -73 6 -130 36 -69 35 -104 -4 -117 -24
-9 -37 -6 -77 17 -56 32 -108 35 -141 8 -20 -16 -24 -31 -30 -101 -6 -93 -21
-113 -74 -108 -23 2 -37 14 -66 58 -36 55 -72 79 -121 80 -23 0 -27 -5 -33
-40 -10 -56 -58 -96 -127 -105 -29 -3 -217 -5 -418 -3 -326 3 -368 5 -397 21
-132 72 -132 252 0 316 24 12 53 21 65 21 19 0 22 6 22 35 0 69 74 166 140
182 39 10 129 63 145 86 22 32 19 99 -6 131 -12 15 -42 38 -69 51 -52 26 -65
46 -50 75 15 29 43 40 97 40 70 0 115 26 132 77 14 40 14 43 -18 106 -36 70
-37 93 -6 112 17 11 30 9 90 -16 39 -15 81 -29 95 -29 60 0 100 61 100 154 0
45 4 58 22 70 32 23 51 20 79 -11z m-2013 -2353 c12 -19 23 -20 215 -20 171 0
206 3 226 16 32 23 40 6 28 -59 -13 -68 -24 -79 -38 -38 -7 19 -22 36 -36 42
-38 14 -139 11 -152 -5 -8 -9 -11 -79 -9 -232 l3 -219 43 -20 c23 -11 42 -23
42 -27 0 -5 -58 -8 -130 -8 -71 0 -130 4 -130 9 0 5 19 15 43 23 l42 13 0 235
0 235 -72 0 c-70 0 -73 -1 -102 -35 -16 -19 -32 -32 -37 -28 -4 4 0 31 9 59
10 28 17 58 17 65 0 21 23 17 38 -6z m4895 0 c16 -19 29 -20 212 -20 157 0
202 3 226 15 36 19 42 10 31 -59 -8 -55 -27 -70 -41 -32 -14 35 -40 46 -116
46 -61 0 -66 -2 -75 -26 -13 -33 -13 -395 0 -428 6 -18 21 -28 50 -36 74 -20
44 -30 -90 -30 -132 0 -159 9 -95 30 19 6 40 20 45 30 6 11 10 107 10 222 0
245 1 243 -88 236 -54 -4 -67 -9 -96 -37 -19 -18 -36 -29 -39 -24 -3 5 1 31
10 59 9 27 18 55 19 62 5 17 17 15 37 -8z m-5103 -233 c43 -131 86 -250 95
-264 9 -14 35 -32 56 -41 21 -8 39 -19 39 -24 0 -4 -59 -8 -131 -8 -97 0 -130
3 -127 12 3 7 19 16 36 20 28 7 32 13 32 41 0 19 -7 57 -15 86 l-16 52 -91 -3
-92 -3 -18 -60 c-22 -71 -17 -102 17 -111 13 -3 29 -12 36 -20 10 -12 -6 -14
-104 -14 -64 0 -118 4 -121 9 -4 5 14 19 38 31 42 20 47 27 90 128 47 111 136
346 136 358 0 10 44 52 53 50 4 -1 43 -108 87 -239z m4890 0 c43 -131 86 -250
95 -264 9 -14 35 -32 56 -41 21 -8 39 -19 39 -24 0 -4 -59 -8 -131 -8 -97 0
-130 3 -127 12 3 7 19 16 36 20 28 7 32 13 32 41 0 19 -7 57 -15 86 l-16 52
-92 -3 -92 -3 -17 -65 c-20 -74 -17 -97 17 -106 13 -3 29 -12 36 -20 10 -12
-6 -14 -104 -14 -64 0 -118 4 -121 9 -4 5 14 19 38 31 42 20 47 27 90 128 47
111 136 346 136 358 0 10 44 52 53 50 4 -1 43 -108 87 -239z m-6380 204 c0 -5
-9 -13 -20 -16 -35 -11 -28 -36 66 -261 40 -94 60 -131 65 -121 5 8 23 49 40
92 l30 77 -31 79 c-32 78 -66 120 -110 134 -46 15 -14 25 80 25 55 0 100 -4
100 -9 0 -5 -9 -15 -21 -22 l-20 -14 22 -59 23 -60 13 30 c24 56 27 96 9 106
-33 19 -14 28 59 28 81 0 96 -11 40 -30 -27 -9 -39 -22 -59 -63 -42 -89 -42
-95 6 -218 l43 -112 48 149 c26 82 50 168 54 191 5 39 3 43 -21 54 -46 21 -28
29 69 29 100 0 119 -10 63 -33 -18 -8 -39 -25 -45 -38 -7 -13 -48 -127 -92
-254 -50 -146 -83 -230 -92 -230 -8 0 -34 53 -64 127 -27 70 -53 128 -56 128
-3 0 -28 -57 -55 -127 -27 -69 -54 -128 -60 -130 -7 -2 -52 96 -109 239 -53
134 -104 251 -113 262 -10 10 -27 22 -39 27 -49 19 -21 29 77 29 55 0 100 -4
100 -9z m1005 -3 c3 -7 6 -31 8 -52 2 -44 -19 -61 -29 -22 -11 47 -34 57 -120
54 l-79 -3 0 -105 0 -105 55 -3 c50 -3 57 -1 77 25 14 17 26 24 31 18 10 -13
3 -145 -9 -145 -5 0 -15 16 -24 36 -14 35 -14 35 -72 32 l-58 -3 -3 -101 c-3
-125 3 -134 88 -134 77 0 106 12 131 55 12 19 27 35 35 35 18 0 17 -5 -1 -68
l-16 -52 -199 0 c-130 0 -200 4 -200 10 0 6 14 13 30 17 56 11 60 27 60 248 0
221 -4 237 -60 248 -16 4 -30 11 -30 17 0 16 379 14 385 -2z m1453 0 c-3 -7
-13 -15 -24 -17 -46 -8 -54 -29 -54 -133 l0 -98 160 0 160 0 0 98 c0 104 -8
125 -54 133 -11 2 -21 10 -24 17 -3 9 23 12 107 12 115 0 145 -10 86 -30 l-35
-12 0 -234 0 -235 35 -15 c19 -8 35 -16 35 -19 0 -3 -52 -5 -115 -5 -109 0
-144 10 -92 26 51 15 57 30 57 136 l0 98 -160 0 -160 0 0 -91 c0 -50 4 -99 10
-109 5 -10 26 -24 45 -30 63 -21 37 -30 -85 -30 -66 0 -120 4 -120 8 0 5 15
15 33 23 l32 14 3 232 2 231 -35 12 c-63 21 -38 30 81 30 88 0 115 -3 112 -12z
m857 0 c11 -28 9 -91 -2 -95 -6 -2 -16 12 -23 31 -14 43 -29 48 -125 44 l-70
-3 0 -105 0 -105 55 -3 c50 -3 57 -1 77 25 14 17 26 24 31 18 10 -13 3 -145
-9 -145 -5 0 -15 16 -24 36 -14 35 -14 35 -72 32 l-58 -3 -3 -101 c-3 -125 3
-134 88 -134 77 0 106 12 131 55 12 19 27 35 35 35 18 0 17 -5 -1 -68 l-16
-52 -199 0 c-130 0 -200 4 -200 10 0 6 14 13 30 17 56 11 60 27 60 248 0 221
-4 237 -60 248 -16 4 -30 11 -30 17 0 16 379 14 385 -2z m452 -11 c73 -39 85
-148 23 -212 -19 -19 -43 -38 -53 -41 -11 -3 -15 -9 -10 -13 5 -3 28 -33 50
-67 79 -116 148 -174 209 -174 16 0 24 -5 22 -12 -3 -8 -29 -14 -72 -16 l-68
-3 -46 48 c-58 60 -95 105 -133 159 -25 36 -68 64 -100 64 -10 0 -12 -180 -3
-204 3 -8 21 -20 40 -26 63 -21 35 -30 -91 -30 -128 0 -158 10 -86 30 21 5 42
17 45 26 3 9 6 111 6 229 0 227 0 226 -52 239 -16 3 -28 11 -28 17 0 7 50 10
158 7 126 -3 163 -7 189 -21z m673 16 c0 -5 -14 -16 -30 -25 l-30 -17 0 -173
c0 -145 3 -179 18 -208 55 -111 227 -116 284 -8 20 38 23 60 26 188 4 157 -6
215 -38 225 -45 14 -15 25 70 25 90 0 115 -11 66 -30 -13 -5 -28 -15 -32 -22
-5 -7 -11 -87 -15 -178 -6 -178 -14 -212 -67 -266 -58 -58 -161 -79 -257 -53
-51 14 -110 73 -124 124 -6 22 -11 113 -11 203 l0 163 -35 20 c-19 12 -32 25
-29 30 6 11 204 12 204 2z m784 -18 c59 -30 81 -66 80 -130 -2 -89 -58 -154
-146 -170 -43 -8 -92 1 -83 15 3 6 19 10 35 10 46 0 78 17 96 52 21 40 24 126
5 161 -16 31 -67 57 -109 57 -64 0 -62 9 -62 -229 0 -235 4 -252 55 -265 14
-4 25 -11 25 -16 0 -6 -48 -10 -120 -10 -66 0 -120 4 -120 8 0 5 18 16 39 24
36 14 40 20 46 62 4 25 6 124 3 220 -3 182 -8 202 -50 208 -12 2 -23 9 -26 16
-3 11 25 13 144 10 125 -2 155 -6 188 -23z m583 -4 c99 -44 148 -123 147 -236
-1 -117 -83 -232 -191 -269 -55 -19 -393 -24 -393 -6 0 6 13 13 30 16 16 4 34
12 40 19 7 8 9 92 8 236 l-3 224 -35 11 c-19 6 -36 17 -38 23 -3 10 41 12 189
9 178 -3 198 -5 246 -27z m1698 17 c2 -7 6 -31 7 -52 3 -45 -18 -62 -28 -22
-11 47 -34 57 -120 54 l-79 -3 0 -105 0 -105 60 0 c53 0 61 3 70 23 5 12 15
22 22 22 9 0 13 -21 13 -75 0 -82 -11 -95 -34 -40 -15 35 -16 35 -75 35 l-61
0 0 -104 c0 -128 6 -136 90 -136 77 0 103 11 130 55 12 20 27 34 34 32 12 -4
11 -18 -5 -79 l-10 -38 -199 0 c-116 0 -200 4 -200 9 0 5 16 15 36 21 22 8 39
21 45 37 14 38 11 393 -4 422 -7 15 -26 28 -44 33 -75 20 -27 28 157 28 144 0
192 -3 195 -12z m-3809 -1569 c10 -23 23 -47 29 -53 6 -6 18 -23 27 -37 15
-23 26 -27 88 -33 110 -11 110 -11 39 -82 l-62 -63 15 -90 c8 -50 14 -91 13
-91 -1 0 -41 18 -88 40 l-86 40 -76 -41 c-42 -23 -78 -39 -80 -37 -3 2 2 42
10 88 l15 85 -66 66 -66 66 89 14 88 14 40 77 c22 43 43 78 46 78 3 0 14 -19
25 -41z m-547 -154 c78 -11 78 -12 33 -58 l-42 -43 10 -53 c5 -30 10 -55 10
-58 0 -2 -23 9 -52 23 l-52 26 -53 -26 c-59 -29 -61 -27 -43 49 9 39 8 41 -36
81 l-45 42 31 6 c16 3 44 9 60 12 24 5 36 16 57 57 l26 52 25 -52 c24 -49 28
-53 71 -58z m1175 56 c26 -50 43 -61 104 -61 17 0 32 -4 32 -8 0 -4 -17 -25
-39 -46 -36 -35 -38 -39 -30 -79 15 -80 15 -80 -45 -50 l-54 26 -47 -27 c-25
-15 -48 -26 -50 -24 -2 1 1 27 7 57 l9 54 -41 42 c-47 47 -47 47 36 60 37 6
43 11 64 56 13 27 25 49 27 49 1 0 14 -22 27 -49z"/>
<path d="M4906 4814 c-3 -9 -6 -39 -6 -67 0 -34 -7 -63 -20 -84 -44 -73 -112
-85 -209 -39 -33 16 -64 26 -68 23 -4 -4 5 -32 20 -63 32 -65 35 -126 7 -171
-25 -42 -61 -59 -137 -66 -34 -3 -67 -8 -73 -12 -16 -10 5 -32 51 -55 20 -11
46 -31 58 -46 45 -57 36 -151 -19 -197 l-29 -25 38 -15 c50 -21 96 -60 111
-97 12 -28 16 -30 64 -30 l52 0 -40 82 c-41 80 -41 83 -41 192 0 101 3 117 28
171 65 139 156 218 293 256 273 75 529 -97 563 -379 16 -136 -27 -260 -126
-359 -104 -103 -247 -146 -401 -119 -43 8 -94 22 -112 31 l-33 17 6 -24 c4
-12 7 -33 7 -45 0 -21 5 -23 56 -23 51 0 59 -3 91 -35 30 -30 42 -35 79 -35
63 0 99 -22 140 -85 19 -30 38 -55 42 -55 22 0 32 30 32 91 0 76 20 112 76
135 49 20 75 17 137 -16 31 -16 59 -30 62 -30 12 0 3 34 -20 78 -31 58 -32
109 -2 152 36 54 67 71 143 78 38 4 69 12 68 17 0 6 -16 20 -35 32 -73 47 -87
62 -98 111 -19 78 5 122 91 169 70 38 62 57 -28 64 -84 6 -124 30 -148 89 -22
56 -20 89 9 144 23 42 32 76 21 76 -2 0 -33 -13 -68 -30 -74 -35 -89 -36 -143
-10 -53 26 -75 64 -75 133 0 99 -23 115 -64 44 -42 -72 -69 -90 -134 -95 -49
-3 -63 0 -98 23 -22 15 -50 46 -63 71 -25 45 -44 56 -55 28z"/>
<path d="M4988 4537 c-242 -68 -362 -343 -249 -572 75 -151 223 -233 402 -223
57 3 91 12 140 35 97 46 142 91 191 190 42 84 43 90 43 182 0 89 -2 101 -34
166 -42 85 -118 163 -198 201 -49 23 -73 28 -153 31 -57 2 -114 -2 -142 -10z"/>
<path d="M4377 3966 c-73 -27 -112 -79 -125 -168 l-7 -53 -45 -5 c-25 -3 -56
-12 -68 -19 -28 -15 -61 -84 -62 -126 0 -40 32 -90 72 -115 32 -19 52 -20 436
-20 l404 0 29 29 c36 37 38 79 6 117 -20 23 -34 28 -93 33 l-69 6 -5 50 c-7
64 -31 99 -87 126 -39 19 -52 20 -89 12 l-43 -10 -33 55 c-50 83 -138 118
-221 88z"/>
<path d="M2594 2274 l-41 -109 70 -3 c38 -2 72 0 75 3 3 3 -10 54 -29 112
l-35 106 -40 -109z"/>
<path d="M7484 2274 l-41 -109 70 -3 c38 -2 72 0 75 3 3 3 -10 54 -29 112
l-35 106 -40 -109z"/>
<path d="M4847 2425 c-4 -9 -7 -64 -7 -121 l0 -104 38 0 c37 0 67 15 106 54
32 32 29 113 -6 151 -33 35 -121 49 -131 20z"/>
<path d="M6802 2428 c-9 -9 -12 -73 -12 -224 l0 -213 26 -20 c21 -16 41 -21
89 -21 116 0 195 68 217 189 31 168 -76 301 -242 301 -38 0 -71 -5 -78 -12z"/>
</g>
</svg>
